# Blender 3.6.4
# www.blender.org
mtllib corner_wall.mtl
o Plane.001
v -1.000000 -0.000000 -1.000000
v -1.000000 -0.000000 -1.000000
v 1.000000 -0.000000 -1.000000
v -1.000000 8.000001 -0.999999
v -1.000000 8.000001 -0.999999
v 1.000000 8.000001 -0.999999
v -1.000000 -0.000000 1.000000
v -1.000000 8.000000 1.000001
vn -0.0000 -0.0000 1.0000
vn 1.0000 -0.0000 -0.0000
vt 0.000000 0.000000
vt 1.000000 0.000000
vt 1.000000 1.000000
vt 0.000000 1.000000
s 0
usemtl Material.002
f 1/1/1 3/2/1 6/3/1
f 1/1/1 6/3/1 4/4/1
f 2/1/2 5/4/2 8/4/2
f 2/1/2 8/4/2 7/1/2
